<svg id="Layer_3" data-name="Layer 3" xmlns="http://www.w3.org/2000/svg" viewBox="0 0 558.06 204.84"><defs><style>.cls-1,.cls-3{fill:#f4e608;}.cls-2{fill:#fff;stroke:#000;stroke-miterlimit:10;}.cls-3{font-size:93.57px;font-family:RobotoSlab-Regular, Roboto Slab;}.cls-4{font-size:61.85px;}</style></defs><path class="cls-1" d="M171,343.47l9.63-6.75-83.5-63.9V240.7l74.22-60.28H101.9a27.39,27.39,0,0,0-27.39,27.39V357.87a27.39,27.39,0,0,0,27.39,27.39h70Z" transform="translate(-74.51 -180.42)"/><path class="cls-1" d="M267.56,180.42H195.72v41.33l-9.31,6.75,84.78,65.83V325.8l-74.32,59.46h70.69A27.39,27.39,0,0,0,295,357.87V207.81A27.39,27.39,0,0,0,267.56,180.42Z" transform="translate(-74.51 -180.42)"/><polygon class="cls-2" points="104.83 15 104.83 35.87 55.06 75.37 104.83 115.2 104.83 137.03 37.07 84.05 37.07 67.03 104.83 15"/><polygon class="cls-2" points="109.56 189.45 109.96 168.65 161.43 130.26 111.48 89.6 111.9 67.84 179.92 121.97 179.6 138.93 109.56 189.45"/><text class="cls-3" transform="translate(241.47 104.7) scale(1.1 1)">FAIAZ<tspan class="cls-4" x="273.39" y="0"> </tspan><tspan class="cls-4"><tspan x="0" y="74.22">HOSSAIN</tspan></tspan></text></svg>