<svg id="Layer_3" data-name="Layer 3" xmlns="http://www.w3.org/2000/svg" viewBox="0 0 220.44 204.84"><defs><style>.cls-1{fill:#f4e608;}.cls-2{fill:#fff;stroke:#000;stroke-miterlimit:10;}</style></defs><path class="cls-1" d="M406.4,345.51l9.63-6.74-83.49-63.91V242.74l74.21-60.28H337.31a27.39,27.39,0,0,0-27.39,27.4V359.91a27.39,27.39,0,0,0,27.39,27.4h70Z" transform="translate(-309.92 -182.46)"/><path class="cls-1" d="M503,182.46H431.13V223.8l-9.32,6.74,84.79,65.84v31.47l-74.33,59.46H503a27.39,27.39,0,0,0,27.39-27.4v-150A27.39,27.39,0,0,0,503,182.46Z" transform="translate(-309.92 -182.46)"/><polygon class="cls-2" points="104.83 15 104.83 35.87 55.06 75.37 104.83 115.2 104.83 137.03 37.07 84.05 37.07 67.03 104.83 15"/><polygon class="cls-2" points="109.56 189.45 109.96 168.65 161.43 130.26 111.48 89.6 111.9 67.84 179.92 121.97 179.6 138.93 109.56 189.45"/></svg>